<?xml version="1.0" encoding="UTF-8" standalone="no"?>
<!-- Created with Inkscape (http://www.inkscape.org/) -->

<svg
   xmlns:dc="http://purl.org/dc/elements/1.1/"
   xmlns:cc="http://creativecommons.org/ns#"
   xmlns:rdf="http://www.w3.org/1999/02/22-rdf-syntax-ns#"
   xmlns:svg="http://www.w3.org/2000/svg"
   xmlns="http://www.w3.org/2000/svg"
   xmlns:sodipodi="http://sodipodi.sourceforge.net/DTD/sodipodi-0.dtd"
   xmlns:inkscape="http://www.inkscape.org/namespaces/inkscape"
   width="102.57901mm"
   height="22.217106mm"
   viewBox="0 0 363.46893 78.722028"
   id="svg5530"
   version="1.1"
   inkscape:version="0.91 r13725"
   sodipodi:docname="tux-wings-up.svg">
  <defs
     id="defs5532" />
  <sodipodi:namedview
     id="base"
     pagecolor="#ffffff"
     bordercolor="#666666"
     borderopacity="1.0"
     inkscape:pageopacity="0.0"
     inkscape:pageshadow="2"
     inkscape:zoom="0.35"
     inkscape:cx="-230.40839"
     inkscape:cy="-14.9247"
     inkscape:document-units="px"
     inkscape:current-layer="layer1"
     showgrid="false"
     fit-margin-top="0"
     fit-margin-left="0"
     fit-margin-right="0"
     fit-margin-bottom="0"
     inkscape:window-width="1366"
     inkscape:window-height="720"
     inkscape:window-x="0"
     inkscape:window-y="0"
     inkscape:window-maximized="1" />
  <metadata
     id="metadata5535">
    <rdf:RDF>
      <cc:Work
         rdf:about="">
        <dc:format>image/svg+xml</dc:format>
        <dc:type
           rdf:resource="http://purl.org/dc/dcmitype/StillImage" />
        <dc:title></dc:title>
      </cc:Work>
    </rdf:RDF>
  </metadata>
  <g
     inkscape:label="Layer 1"
     inkscape:groupmode="layer"
     id="layer1"
     transform="translate(-41.122675,-461.57262)">
    <g
       id="g6344"
       transform="translate(-67.543557,87.090254)">
      <path
         sodipodi:nodetypes="cssssssszc"
         inkscape:connector-curvature="0"
         id="path7013-1"
         d="m 365.99105,375.19866 c 9.34885,-3.25902 32.91534,4.80012 55.78893,20.15881 18.30169,12.28886 38.05086,29.0309 45.24471,38.35546 5.13725,6.65882 6.6041,14.06262 3.47182,17.52374 -2.65551,2.9343 -9.77084,2.57316 -19.53876,-0.99168 -14.89297,-5.43527 -54.48046,-27.12852 -74.32234,-40.72733 -5.98741,-4.10352 -7.52714,-5.52372 -10.61732,-8.44593 -4.07651,-3.85492 -7.32727,-7.58056 -9.12636,-16.02462 -0.73794,-3.46353 2.39697,-5.34546 2.83542,-6.0815 0.43845,-0.73602 5.41615,-3.36014 6.2639,-3.76695 z"
         style="fill:#000000" />
      <path
         sodipodi:nodetypes="cssssssszc"
         inkscape:connector-curvature="0"
         id="path7013-1-1"
         d="m 214.81035,375.19866 c -9.34885,-3.25902 -32.91534,4.80011 -55.78892,20.1588 -18.30169,12.28886 -38.05087,29.0309 -45.24472,38.35547 -5.13725,6.65882 -6.6041,14.06262 -3.47182,17.52374 2.6555,2.9343 9.77084,2.57316 19.53875,-0.99169 14.89299,-5.43527 54.48048,-27.12852 74.32236,-40.72733 5.9874,-4.10352 7.52713,-5.52372 10.61731,-8.44593 4.07651,-3.85492 7.32727,-7.58056 9.12637,-16.02462 0.73793,-3.46353 -2.39698,-5.34546 -2.83543,-6.0815 -0.43845,-0.73602 -5.41615,-3.36014 -6.2639,-3.76694 z"
         style="fill:#000000" />
    </g>
  </g>
</svg>
