<?xml version="1.0" encoding="UTF-8" standalone="no"?>
<!-- Created with Inkscape (http://www.inkscape.org/) -->

<svg
   xmlns:dc="http://purl.org/dc/elements/1.1/"
   xmlns:cc="http://creativecommons.org/ns#"
   xmlns:rdf="http://www.w3.org/1999/02/22-rdf-syntax-ns#"
   xmlns:svg="http://www.w3.org/2000/svg"
   xmlns="http://www.w3.org/2000/svg"
   xmlns:sodipodi="http://sodipodi.sourceforge.net/DTD/sodipodi-0.dtd"
   xmlns:inkscape="http://www.inkscape.org/namespaces/inkscape"
   width="81.676636mm"
   height="33.427063mm"
   viewBox="0 0 289.4054 118.44235"
   id="svg4942"
   version="1.1"
   inkscape:version="0.91 r13725"
   sodipodi:docname="tux-wings-down.svg">
  <defs
     id="defs4944" />
  <sodipodi:namedview
     id="base"
     pagecolor="#ffffff"
     bordercolor="#666666"
     borderopacity="1.0"
     inkscape:pageopacity="0.0"
     inkscape:pageshadow="2"
     inkscape:zoom="0.35"
     inkscape:cx="-498.86868"
     inkscape:cy="-112.20739"
     inkscape:document-units="px"
     inkscape:current-layer="layer1"
     showgrid="false"
     fit-margin-top="0"
     fit-margin-left="0"
     fit-margin-right="0"
     fit-margin-bottom="0"
     inkscape:window-width="1366"
     inkscape:window-height="720"
     inkscape:window-x="0"
     inkscape:window-y="0"
     inkscape:window-maximized="1" />
  <metadata
     id="metadata4947">
    <rdf:RDF>
      <cc:Work
         rdf:about="">
        <dc:format>image/svg+xml</dc:format>
        <dc:type
           rdf:resource="http://purl.org/dc/dcmitype/StillImage" />
        <dc:title></dc:title>
      </cc:Work>
    </rdf:RDF>
  </metadata>
  <g
     inkscape:label="Layer 1"
     inkscape:groupmode="layer"
     id="layer1"
     transform="translate(-309.58297,-324.5696)">
    <g
       id="g6340"
       transform="translate(-245.75001,-87.329686)">
      <path
         sodipodi:nodetypes="cssssssszc"
         inkscape:connector-curvature="0"
         id="path7013-1-4"
         d="m 786.22674,412.01914 c 9.72585,1.85203 26.10546,20.61469 38.23522,45.3525 9.7053,19.79331 18.43757,44.16693 20.00534,55.83916 1.11958,8.33533 -1.31199,15.48063 -5.75518,16.91191 -3.76689,1.21343 -9.74838,-2.657 -16.42522,-10.6282 -10.18006,-12.15357 -33.61721,-50.73422 -44.00138,-72.43207 -3.13348,-6.54746 -3.75683,-8.54725 -4.9719,-12.62305 -1.6029,-5.37671 -2.55532,-10.22859 0.10865,-18.44091 1.09269,-3.36847 4.74857,-3.43082 5.4963,-3.84902 0.74772,-0.41819 6.37059,-0.20189 7.30817,-0.13032 z"
         style="fill:#000000" />
      <path
         sodipodi:nodetypes="cssssssszc"
         inkscape:connector-curvature="0"
         id="path7013-1-1-9"
         d="m 613.84463,412.01914 c -9.72585,1.85203 -26.10546,20.61469 -38.23522,45.3525 -9.7053,19.79331 -18.43757,44.16693 -20.00534,55.83917 -1.11958,8.33533 1.31199,15.48063 5.75518,16.91191 3.76689,1.21343 9.74838,-2.657 16.42522,-10.6282 10.18006,-12.15358 33.61721,-50.73423 44.00138,-72.43208 3.13348,-6.54746 3.75683,-8.54725 4.9719,-12.62305 1.6029,-5.37671 2.55532,-10.22859 -0.10865,-18.44091 -1.09269,-3.36847 -4.74857,-3.43082 -5.4963,-3.84902 -0.74772,-0.41819 -6.37059,-0.20189 -7.30817,-0.13032 z"
         style="fill:#000000" />
    </g>
  </g>
</svg>
